# xmcd
#
# Track frame offsets: 
#        150
#        27005
#        48447
#        71330
#        94060
#        118377
#        140107
#        141667
#        167035
#        191740
#
# Disc length: 2936 seconds
#
# Revision: 6
# Processed by: cddbd v1.5.1PL0 Copyright (c) Steve Scherf et al.
# Submitted via: ExactAudioCopy v0.95b2
#
DISCID=990b760a
DTITLE=Sting - Brand New Day
DYEAR=1999
DGENRE=Rock
TTITLE0=A Thousand Years
TTITLE1=Desert Rose
TTITLE2=Big Lie Small World
TTITLE3=After the Rain Has Fallen
TTITLE4=Perfect Love... Gone Wrong
TTITLE5=Tomorrow We'll See
TTITLE6=Prelude to the End of the Game
TTITLE7=Fill Her Up
TTITLE8=Ghost Story
TTITLE9=Brand New Day
EXTD=\nYEAR: 2000  ID3G:  17
EXTT0=
EXTT1=
EXTT2=
EXTT3=
EXTT4=
EXTT5=
EXTT6=
EXTT7=
EXTT8=
EXTT9=
PLAYORDER=
